<svg width="166px" height="157px" viewBox="0 0 166 157" fill="none" xmlns="http://www.w3.org/2000/svg">
<path d="M17.2822 65.8992H11.8565C5.30937 65.8992 0.00195312 71.2046 0.00195312 77.7517V120.39H17.2822V65.8992Z" fill="#FA2D2C"/>
<path d="M17.2822 124.946H0V125.551C0 132.096 5.30946 137.404 11.8566 137.404H17.3393C17.3047 136.861 17.2802 136.317 17.2802 135.768V124.946H17.2822Z" fill="#FA2D2C"/>
<path d="M166 120.393V77.7517C166 71.2066 160.693 65.8992 154.145 65.8992H148.72V120.393H166Z" fill="#FA2D2C"/>
<path d="M148.72 135.768C148.72 136.319 148.695 136.861 148.661 137.404H154.145C160.693 137.404 166 132.096 166 125.551V124.946H148.72V135.768Z" fill="#FA2D2C"/>
<path d="M67.2573 12.8373V9.89712C67.2573 4.43882 62.8164 0 57.3581 0C51.8998 0 47.459 4.43882 47.459 9.89712V12.8373H67.2573Z" fill="#FA2D2C"/>
<path d="M118.543 12.8373V9.89712C118.543 4.43882 114.102 0 108.644 0C103.184 0 98.7427 4.43882 98.7427 9.89712V12.8373H118.543Z" fill="#FA2D2C"/>
<path d="M21.8374 135.768C21.8374 147.231 31.1636 156.556 42.6287 156.556H123.374C134.837 156.556 144.165 147.231 144.165 135.768V42.7489C144.165 31.2879 134.837 21.9617 123.374 21.9617H42.6287C31.1636 21.9617 21.8374 31.2879 21.8374 42.7489V135.768ZM55.256 83.524H110.744C120.741 83.524 128.875 91.6554 128.875 101.65V121.22C128.875 131.215 120.741 139.347 110.744 139.347H55.256C45.259 139.347 37.1255 131.215 37.1255 121.22V101.65C37.1255 91.6554 45.259 83.524 55.256 83.524ZM31.7794 38.4079C31.7794 36.4322 33.382 34.8295 35.3578 34.8295C37.3335 34.8295 38.9361 36.4322 38.9361 38.4079V74.9298C38.9361 76.9055 37.3335 78.5082 35.3578 78.5082C33.382 78.5082 31.7794 76.9055 31.7794 74.9298V38.4079Z" fill="#FA2D2C"/>
<path d="M110.744 88.0791H55.2561C47.771 88.0791 41.6807 94.1674 41.6807 101.65V121.22C41.6807 128.705 47.771 134.794 55.2561 134.794H110.744C118.231 134.794 124.322 128.705 124.322 121.22V101.65C124.322 94.1674 118.231 88.0791 110.744 88.0791ZM116.678 104.905H47.6752C45.8768 104.905 44.421 103.447 44.421 101.65C44.421 99.8561 45.8768 98.3982 47.6752 98.3982H116.678C118.474 98.3982 119.93 99.8561 119.93 101.65C119.93 103.447 118.474 104.905 116.678 104.905Z" fill="#FA2D2C"/>
</svg>
