<svg xmlns="http://www.w3.org/2000/svg" xmlns:xlink="http://www.w3.org/1999/xlink" width="300" height="300" viewBox="0 0 300 300"><defs><linearGradient id="a" x1="0.5" y1="1" x2="0.5" gradientUnits="objectBoundingBox"><stop offset="0" stop-color="gray" stop-opacity="0.251"/><stop offset="0.54" stop-color="gray" stop-opacity="0.122"/><stop offset="1" stop-color="gray" stop-opacity="0.102"/></linearGradient><linearGradient id="b" x1="0.495" y1="1.014" x2="0.495" y2="0" xlink:href="#a"/><linearGradient id="c" x1="0.5" y1="1" x2="0.5" y2="0" xlink:href="#a"/><linearGradient id="d" x1="0.5" y1="1" x2="0.5" y2="0" xlink:href="#a"/><clipPath id="f"><rect width="300" height="300"/></clipPath></defs><g id="e" clip-path="url(#f)"><g transform="translate(18.02 57.604)"><circle cx="12.922" cy="12.922" r="12.922" transform="translate(13.505 5.446)" fill="#ffc93c"/><path d="M173.518,163.913c5.426,12.255-1.5,26.366-9.642,36.992-2.727,3.563-5.737,7.3-6.115,11.768-.456,5.467,3.246,10.493,7.638,13.778a32.162,32.162,0,0,0,28.484,4.817c8.238-2.61,15.165-8.505,23.475-10.882,13.9-3.98,28.629,2.618,40.53,10.84,8.425,5.812,17.447,12.894,27.6,11.649,7.146-.876,13.211-5.893,17.327-11.8,1.987-2.852,3.716-6.048,6.61-7.972a16.546,16.546,0,0,1,5.762-2.185c18.453-3.944,38.037,5.681,56.246.731,12.3-3.335,22.105-13.064,28.2-24.257s8.944-23.831,11.315-36.353c1.684-8.894,3.082-18.5-.789-26.683-4.1-8.661-13.581-13.911-23.111-14.9s-19.089,1.732-27.87,5.562c-10.971,4.8-21.724,11.513-33.7,11.535-8.155.017-15.932-3.113-23.728-5.5-13.036-3.989-26.591-5.97-40.1-7.8-12.933-1.751-25.994-3.38-39-2.346-9.206.731-17.336,4.25-26.269,5.879-5.823,1.062-11.674.278-17.388,2.057-7.038,2.2-14.275,7.3-14.665,15.334C163.965,151.83,170.641,157.411,173.518,163.913Z" transform="translate(-148.67 -119.24)" fill="#ecf0f1" opacity="0.56"/><path d="M522.369,268.488c-1.187-3.094-4.247-10.365-6.262-8.922-2.546,1.823,2.546,9.878,2.546,9.878.145,1.479-2.718,4.556-4.253,6.09v-.192a.668.668,0,0,1-.067.167l-.128-.07a.832.832,0,0,1-.181.331,3.273,3.273,0,0,0-.014-.331c-.295,1.248-5.437,2.83-5.437,2.83H508.2c-1.429,0-5.148-.322-6.871-3.08a15.246,15.246,0,0,0-3.371-3.933,2.871,2.871,0,0,0-1.6-.606,20.565,20.565,0,0,1-9.386-3.23l-.142-.1-.031.089c-.181-.258-.356-.534-.52-.817h0l-.083-.153a6.982,6.982,0,0,0,3.85-6.209v-.145a4.756,4.756,0,0,0,.639-2.382v-.834l1.087-.967a4.47,4.47,0,0,0,1.265-1.518,1.8,1.8,0,0,0,.133-.778,1.348,1.348,0,0,0-.511-1.206c-.834-.575-2.224,0-2.827-.8-.278-.361-.228-.853-.364-1.279a2.288,2.288,0,0,0-2.2-1.345,9.523,9.523,0,0,0-2.7.575,15.862,15.862,0,0,1-5.754.539,3.758,3.758,0,0,0-1.576.056,2.171,2.171,0,0,0-1.279,1.487,3.494,3.494,0,0,0-.122.762,4.791,4.791,0,0,0-1.206,3.171v2.137a4.789,4.789,0,0,0,1.154,3.11,6.949,6.949,0,0,0,2.91,5.07v.17l.036.022a11.49,11.49,0,0,1-.306,1.965V267.9a20.089,20.089,0,0,1-8.06,2.121H469.9a3.1,3.1,0,0,0-2.224.834c-1.234,1.162-3.4,3-4.725,3-.278,0-7.293,1.37-8.455,1.6l-2.171-2.126-.067.125-.128-.125a5.275,5.275,0,0,0-.706.1,16.824,16.824,0,0,1-3.85-8.491s4.8-5.467,3.035-10.562c-1.506-4.342-5.656,4.964-6.835,7.769a2.24,2.24,0,0,0-.072,1.543l3.9,12.569a5.9,5.9,0,0,0-.309,3.057h-.044l2.841,3.644a15,15,0,0,0,5.481.895,19.161,19.161,0,0,0,7.154-1.373h.659l-.125.047h3.383l2.151,6.507c-.072.592-1.112,8.855-1.946,10.7a4.644,4.644,0,0,0-.328,1.946,14.852,14.852,0,0,0,.62,3.766l1.885-.069-.072.147a98.1,98.1,0,0,0-5.837,14.548l-2.743,5.559,2.057,24.932h.083l.158.025h0c.222.033.556.083,1,.139l-.161.278-4.533,7.5s-3.233,6.618,3.919,5.37c0,0,2.643-.767,3.722-5.281l4.7-4.411s.22-2.93-1.112-4.1c-.083-1.354-.295-5.306.031-6.257.392-1.151-1.668-14.384-1.668-14.384s7.443-15.44,11.952-15.824a2.47,2.47,0,0,1,.976.128c3.705,1.206,8.194,10.165,9.514,12.952h0l.061.128v.025l.05.108V327l.044.094v.025l.039.086v.019l.033.069v.028l.025.053v.022l.017.039v.047h0l.014.033.586,17.358h0l.058.031h.028l-.05.359-.256,1.793s3.233,6.81,3.035,7.671,2.154,4.317,5.484,3.358,1.348-6.365,1.348-6.365l-3.208-6.61-.142-.295a6.3,6.3,0,0,0,.9-.67s-.978-7.1,0-8.63,1.273-8.536,1.273-8.536-.686-4.795-1.862-6.9l-4.925-17.58c1.476,1.373,2.624,1.909,3.583,1.873h.158a2.393,2.393,0,0,0,1.206-.3,3.393,3.393,0,0,0,.556-.392.874.874,0,0,0,.092-.092h0c1.37-1.151-1.568-5.659-3.233-8.338-1.6-2.585.606-9.609.773-10.131a2.654,2.654,0,0,1,.475-.278,2.932,2.932,0,0,1,1.09-.236c1.6.056,3.558.973,5.987,1.434a28.242,28.242,0,0,0,5.111.4h.1c.681,0,1.3-.014,1.8-.033a3.038,3.038,0,0,0,1.306-.353h0a3.946,3.946,0,0,0,.928-.75l4.264-4.817-.111.053a2.4,2.4,0,0,0,0-1.7l4.505-7.783A2.96,2.96,0,0,0,522.369,268.488Z" transform="translate(-355.087 -212.903)" fill="url(#a)"/><path d="M512.1,613.16l-4.539,4.35c-1.039,4.447-3.594,5.2-3.594,5.2-6.9,1.228-3.783-5.281-3.783-5.281l4.378-7.407.539-.914s3.121-.945,5.2-.378a1.779,1.779,0,0,1,.709.384C512.314,610.244,512.1,613.16,512.1,613.16Z" transform="translate(-395.438 -472.531)" fill="#34495e" opacity="0.83"/><path d="M624.219,602.02c-3.216.945-5.484-2.457-5.281-3.31S616,591.155,616,591.155l.245-1.768.228-1.637,5.281.378.5,1.045,3.1,6.518S627.435,601.075,624.219,602.02Z" transform="translate(-479.57 -457.514)" fill="#34495e" opacity="0.83"/><path d="M524.266,609.816c-.5.853-4.531.422-6.5.156l.539-.915s3.121-.945,5.2-.378a1.78,1.78,0,0,1,.709.384C524.246,609.524,524.266,609.816,524.266,609.816Z" transform="translate(-408.643 -472.495)" opacity="0.1"/><path d="M622.878,589.153a6.115,6.115,0,0,1-6.018.214l.228-1.637,5.281.378Z" transform="translate(-480.191 -457.5)" opacity="0.1"/><path d="M544.164,463.752c-.945,1.512,0,8.511,0,8.511a6.033,6.033,0,0,1-6.807.756l-.556-17.113s-6.145-14.089-10.5-13.711-11.535,15.6-11.535,15.6,1.985,13.047,1.607,14.175,0,6.618,0,6.618c-.661,1.134-7.563,0-7.563,0L506.83,454l2.635-5.487a97.275,97.275,0,0,1,5.628-14.342c.764-1.6,1.276-2.582,1.276-2.582l5.031-1.048,16.329-3.385,5.867,21.358c1.134,2.079,1.8,6.807,1.8,6.807S545.109,462.24,544.164,463.752Z" transform="translate(-400.744 -341.56)" fill="#34495e"/><g transform="translate(106.075 85.589)" opacity="0.1"><path d="M591.911,512.055l-.556-17.113s-6.145-14.089-10.5-13.711a2.368,2.368,0,0,0-.57.128c4.241,1.409,9.553,13.583,9.553,13.583l.556,17.113a6.672,6.672,0,0,0,3.761.687A6.691,6.691,0,0,1,591.911,512.055Z" transform="translate(-559.861 -466.185)"/><path d="M510.287,478.568,508.3,453.984l2.646-5.495a97.26,97.26,0,0,1,5.628-14.342c.764-1.6,1.276-2.582,1.276-2.582l5.031-1.048,14.906-3.1-.081-.3-16.338,3.4-5.031,1.048s-.511.978-1.276,2.582a97.143,97.143,0,0,0-5.628,14.342l-2.646,5.484,1.985,24.584a35.514,35.514,0,0,0,6,.484A44.668,44.668,0,0,1,510.287,478.568Z" transform="translate(-506.79 -427.12)"/></g><path d="M465.775,338.21a4.91,4.91,0,0,0-4.633,5.956l1.512.189,2.268-2.457,1.134-2.079v-.473Z" transform="translate(-367.701 -277.333)" fill="#ced2df"/><path d="M465.775,338.21a4.91,4.91,0,0,0-4.633,5.956l1.512.189,2.268-2.457,1.134-2.079v-.473Z" transform="translate(-367.701 -277.333)" opacity="0.1"/><path d="M693,345.69s4.447,2.363,3.31,5.106l-1.418.556-1.89-1.04-.278-2.457.189-1.7Z" transform="translate(-534.966 -282.734)" fill="#ced2df"/><path d="M693,345.69s4.447,2.363,3.31,5.106l-1.418.556-1.89-1.04-.278-2.457.189-1.7Z" transform="translate(-534.966 -282.734)" opacity="0.1"/><rect width="15.507" height="11.724" rx="5.862" transform="translate(119.831 38.56)" fill="#34495e"/><path d="M456.606,287.547l-3.31,5.281-.278-.939-4.5-14.653a2.254,2.254,0,0,1,.07-1.52c1.137-2.763,5.145-11.952,6.6-7.657,1.7,5-2.932,10.4-2.932,10.4a16.655,16.655,0,0,0,3.955,8.655C456.456,287.4,456.606,287.547,456.606,287.547Z" transform="translate(-358.569 -225.867)" fill="#ec8c9c"/><path d="M691.16,305.58s5.2-4.917,5-6.9c0,0-4.917-7.941-2.457-9.728,1.946-1.423,4.9,5.748,6.045,8.8a2.974,2.974,0,0,1-.2,2.5l-6.215,11Z" transform="translate(-533.84 -241.632)" fill="#ec8c9c"/><path d="M564.209,299.911s.945,6.051-1.8,8.322,7.849,2.257,7.849,2.257l3.783-3.5s-4.35-4.066-3.027-7.09Z" transform="translate(-440.551 -249.671)" fill="#ec8c9c"/><path d="M549.091,323.788a6.629,6.629,0,0,0,8.13-.378l6.618,13.711-.378,16.735s-13.711,7.09-19.384,2.743-.945-6.618-.945-6.618l-1.323-12.858,1.418-8.322s2.552-3.972,2.743-3.972S549.091,323.788,549.091,323.788Z" transform="translate(-425.622 -266.647)" opacity="0.1"/><path d="M549.1,323.108a6.623,6.623,0,0,0,8.133-.378l6.618,13.711-.378,16.735s-13.711,7.091-19.384,2.743-.945-6.618-.945-6.618l-1.323-12.858,1.418-8.322s2.552-3.972,2.743-3.972S549.1,323.108,549.1,323.108Z" transform="translate(-425.629 -266.156)" fill="#ebf1f6"/><path d="M491.749,319a17.546,17.546,0,0,1-8.041,2.087,2.963,2.963,0,0,0-2.137.817c-1.192,1.145-3.28,2.957-4.572,2.957-.278,0-8.322,1.607-8.322,1.607l-2.126-2.126s-3.169,6.193-4.681,5.909l2.743,3.594a16.526,16.526,0,0,0,12.007-.473h3.972l2.079,6.429s-1.04,8.7-1.89,10.59.278,5.578.278,5.578l7.469-.278s.378-3.688.945-4.169-1.985-16.735-1.985-16.735-1.7-9.172,4.539-12.48Z" transform="translate(-368.28 -263.462)" opacity="0.1"/><path d="M542.864,439.38a24.669,24.669,0,0,0-.587,3.41l-5.717.217c.764-1.6,1.276-2.582,1.276-2.582Z" transform="translate(-422.21 -350.383)" opacity="0.1"/><path d="M468.548,339.966l-3.31,5.281-.278-.939a24.443,24.443,0,0,0,3.2-4.778A5.593,5.593,0,0,0,468.548,339.966Z" transform="translate(-370.511 -278.286)" opacity="0.1"/><path d="M491.237,319a18.79,18.79,0,0,1-8.23,2.087,2.963,2.963,0,0,0-2.137.817c-1.192,1.145-3.28,2.957-4.572,2.957-.278,0-8.322,1.607-8.322,1.607l-2.135-2.129s-3.169,6.193-4.681,5.909l2.743,3.594a16.526,16.526,0,0,0,12.007-.473h3.972l2.079,6.426s-1.04,8.7-1.89,10.59.278,5.578.278,5.578l7.468-.278s.378-3.688.945-4.169-1.985-16.735-1.985-16.735-1.7-9.172,4.539-12.48Z" transform="translate(-367.768 -263.462)" fill="#ffc93c"/><path d="M595.244,316.94a18.4,18.4,0,0,0,9.008,3.28,2.738,2.738,0,0,1,1.543.6,14.933,14.933,0,0,1,3.255,3.891c2.079,3.4,7.185,3.027,7.185,3.027s4.964-1.559,5.248-2.779c0,0,.142,6.671,3.263,5.059l-4.105,4.731a2.9,2.9,0,0,1-2.071,1,30.436,30.436,0,0,1-6.484-.359c-3.4-.662-5.862-2.268-7.658-.851,0,0-2.362,7.374-.756,10.023s4.447,7.09,3.121,8.227-2.932,1.04-5.578-1.7-2.932-7.374-2.932-7.374l.662-11.913s-2.552-8.983-5-10.779Z" transform="translate(-463.642 -261.975)" opacity="0.1"/><path d="M626.073,330.133l-4.116,4.75a2.893,2.893,0,0,1-.992.739h0a2.882,2.882,0,0,1-1.073.253,30.072,30.072,0,0,1-6.484-.359c-3.185-.62-5.542-2.065-7.3-1.09a2.577,2.577,0,0,0-.356.236s-2.363,7.374-.756,10.023,4.447,7.09,3.121,8.227a3.059,3.059,0,0,1-.739.481c-1.19.536-2.666.072-4.839-2.182-2.646-2.743-2.932-7.374-2.932-7.374l.661-11.913s-2.552-8.983-5-10.779l1.081-3.877a19.63,19.63,0,0,0,9.061,3.185,2.738,2.738,0,0,1,1.543.6,14.944,14.944,0,0,1,3.255,3.891c2.079,3.4,7.185,3.027,7.185,3.027a27.6,27.6,0,0,0,3.577-1.423h0a5.454,5.454,0,0,0,1.668-1.112.833.833,0,0,0,.181-.334S622.955,331.74,626.073,330.133Z" transform="translate(-464.595 -262.213)" opacity="0.1"/><path d="M625.372,330l-4.114,4.756a2.892,2.892,0,0,1-.8.645h0a2.885,2.885,0,0,1-1.262.347,30.075,30.075,0,0,1-6.485-.359c-3.071-.6-5.375-1.965-7.113-1.184a2.572,2.572,0,0,0-.556.331s-2.363,7.374-.756,10.023,4.447,7.09,3.121,8.227a3.28,3.28,0,0,1-.556.386c-1.223.675-2.735.278-5.028-2.087-2.646-2.743-2.932-7.374-2.932-7.374l.661-11.913s-2.551-8.983-5-10.779l1.134-4.066.136.095a19.63,19.63,0,0,0,9.061,3.185,2.738,2.738,0,0,1,1.543.6,14.942,14.942,0,0,1,3.255,3.891c2.079,3.4,7.185,3.027,7.185,3.027a27.592,27.592,0,0,0,3.577-1.423h0c.859-.439,1.559-.92,1.668-1.359v.239C622.192,326.35,622.609,331.417,625.372,330Z" transform="translate(-464.082 -261.982)" fill="#ffc93c"/><path d="M576.8,300.45H569.85a17,17,0,0,1,.131,3.335,7.143,7.143,0,0,0,7.343.528A4.435,4.435,0,0,1,576.8,300.45Z" transform="translate(-446.247 -250.068)" opacity="0.1"/><circle cx="6.901" cy="6.901" r="6.901" transform="translate(120.918 41.068)" fill="#ec8c9c"/><path d="M565.818,262.215a7.367,7.367,0,0,1,2.3-.211c.689.139,1.276.614,1.965.759,1.329.278,2.563-.7,3.566-1.612l2.168-1.973a4.423,4.423,0,0,0,1.223-1.5,1.5,1.5,0,0,0-.367-1.768c-.792-.556-2.157,0-2.729-.789a4.122,4.122,0,0,1-.353-1.259,2.212,2.212,0,0,0-2.129-1.326,9.42,9.42,0,0,0-2.607.556,15.01,15.01,0,0,1-5.559.531,3.553,3.553,0,0,0-1.52.053,2.126,2.126,0,0,0-1.234,1.465c-.428,1.512.3,3.95,1.037,5.3S564.353,262.4,565.818,262.215Z" transform="translate(-439.433 -215.474)" opacity="0.1"/><path d="M565.818,261.535a7.367,7.367,0,0,1,2.3-.211c.689.139,1.276.614,1.965.759,1.329.278,2.563-.7,3.566-1.612l2.168-1.973a4.424,4.424,0,0,0,1.223-1.5,1.5,1.5,0,0,0-.367-1.768c-.792-.556-2.157,0-2.729-.789a4.122,4.122,0,0,1-.353-1.259,2.212,2.212,0,0,0-2.129-1.326,9.417,9.417,0,0,0-2.607.556,15.01,15.01,0,0,1-5.559.531,3.552,3.552,0,0,0-1.52.053,2.126,2.126,0,0,0-1.234,1.465c-.428,1.512.3,3.95,1.037,5.3S564.353,261.7,565.818,261.535Z" transform="translate(-439.433 -214.983)" fill="#34495e"/><path d="M536.55,394a3.9,3.9,0,0,1,2.268,1.134,4.074,4.074,0,0,0,2.079,1.229" transform="translate(-422.203 -317.616)" opacity="0.1"/><path d="M487.42,349.09s1.234,2.754.473,3.032-.473,2.268-.473,2.268" transform="translate(-386.69 -285.189)" opacity="0.1"/><g transform="translate(101.069 55.582)" opacity="0.1"><path d="M488.866,331.96s8.035-1.607,8.313-1.607c1.3,0,3.38-1.812,4.572-2.957a2.919,2.919,0,0,1,1.3-.72h-.1a2.963,2.963,0,0,0-2.137.817c-1.192,1.145-3.28,2.957-4.572,2.957-.225,0-5.367,1.02-7.455,1.434Z" transform="translate(-488.78 -324.586)"/><path d="M553.409,319.513v-.353a20.063,20.063,0,0,1-6.159,1.971A19.033,19.033,0,0,0,553.409,319.513Z" transform="translate(-530.998 -319.16)"/><path d="M521.486,393.117s-1.134-3.688-.278-5.578,1.89-10.59,1.89-10.59l-2.073-6.429h-3.983l-.242.094h3.266l2.071,6.432s-1.039,8.7-1.89,10.59.278,5.578.278,5.578l7.468-.278v-.058Z" transform="translate(-509.012 -356.245)"/></g><g transform="translate(134.904 68.02)" opacity="0.1"><path d="M619.026,418.241a3.28,3.28,0,0,1-.556.386c-1.223.675-2.735.278-5.028-2.087-2.1-2.176-2.713-5.559-2.877-6.84l-.056.978s.278,4.633,2.932,7.374c2.293,2.374,3.805,2.763,5.028,2.087a3.276,3.276,0,0,0,.556-.386c.4-.342.42-.984.211-1.784A.874.874,0,0,1,619.026,418.241Z" transform="translate(-610.51 -396.973)"/><path d="M648.131,364.046l-2.677,3.094a2.892,2.892,0,0,1-.8.645h0a2.886,2.886,0,0,1-1.262.347,30.081,30.081,0,0,1-6.485-.359c-3.071-.6-5.376-1.965-7.113-1.184a2.567,2.567,0,0,0-.556.331s-1.526,4.764-1.292,8.008a31.268,31.268,0,0,1,1.292-6.5,2.569,2.569,0,0,1,.556-.331c1.74-.781,4.041.586,7.113,1.184a30.431,30.431,0,0,0,6.485.359,2.885,2.885,0,0,0,1.262-.347h0a2.893,2.893,0,0,0,.8-.637l4.116-4.75A1.62,1.62,0,0,1,648.131,364.046Z" transform="translate(-623.083 -363.91)"/></g><path d="M265.74,486.89a.214.214,0,0,0,.253.033A.86.86,0,0,1,265.74,486.89Z" transform="translate(-226.664 -384.688)" fill="url(#b)"/><path d="M192.5,284.946c-.5-.145-1.215-.381-2.074-.681a10.874,10.874,0,0,0,1.921-3.869l-.072.028c.025-.086.05-.17.072-.259-1.648.67-3.472-.464-4.633-1.921s-1.946-3.263-3.219-4.6a14.734,14.734,0,0,0-1.707-1.47,2.36,2.36,0,0,0-1.237-.606c-.742-.022-1.323.706-2.037.92a2.779,2.779,0,0,1-1.42-.053,48.894,48.894,0,0,0-5.5-1.409,6.441,6.441,0,0,0-2.982.336c-.945.359-1.376,1.073-2.14,1.645-.834.614-2.463.6-3.433.709a24.6,24.6,0,0,1-3.547.147,8.3,8.3,0,0,0-2.04.075,7.868,7.868,0,0,0-3.6,2.5,1.854,1.854,0,0,0-.595.931,1.175,1.175,0,0,0,0,.309,2,2,0,0,0,.142.82,10.841,10.841,0,0,0,1.365,2.716,7.843,7.843,0,0,1,1.178,1.929,3.743,3.743,0,0,1,.181,1.112,8.086,8.086,0,0,1-.125,1.2,15.009,15.009,0,0,1-.914,3.182,5.78,5.78,0,0,0-.534,1.668,2.655,2.655,0,0,0,0,.356c-.069,1.834,1.782,3.155,2.14,4.978a2.973,2.973,0,0,1,.053.459,3.106,3.106,0,0,1-1.643,2.691c.083.033.17.061.256.089a2.329,2.329,0,0,1-.256.139,5.191,5.191,0,0,0,.534.172,12.4,12.4,0,0,0-2.7,3.335c-3.216,5.987-25,17.714-25,17.714l.322.183-.261.17c-1.884,1.254-6.307,4.909-2.31,9.531a50.465,50.465,0,0,1,5.309-7.024c.1-.094.195-.181.278-.261a.639.639,0,0,1,.083.506l14.32-8.047s5.089-3.563,6.51-4.367a11.714,11.714,0,0,1,3.227-1.39l-.167.07a6.539,6.539,0,0,1,1.643-.234c2.535.039,5.281,1.9,6.184,9.247,1.212,9.845.65,11.621.261,11.863a.711.711,0,0,1-.142-.025.241.241,0,0,0,.039.028.747.747,0,0,1-.156-.028.222.222,0,0,0,.211.05.2.2,0,0,0,.158-.019h0a1.648,1.648,0,0,0,.192,0,2.04,2.04,0,0,1-.019.278c-.019,0-.114.053,0,.058h0c-.031.556-.028,1.159,0,1.79-1.259.069-2.518.145-3.613.211l.1-.52.044-.233c.967-.078,1.884-.361,1.993-1.145.236-1.723-2.129-2.643-4.141-2.757s-14.081.689-14.081.689-1.809,2.343,3.93,3.057l.531.278a63.789,63.789,0,0,1,6.76,4.8l.2.161-.656.534c3.549.8,6.982,14.367,8.875,20.568s6.034,5.976,9.467,5.056c3.216-.862,3.613-10.2,3.666-11.374v-.12l5.72,7.065.434.536q.25.131.495.245a5.505,5.505,0,0,0,7.755-6.393c-1.376-4.539-3.51-11.251-4.934-14.089-1.192-2.376-2.732-6.323-3.666-8.794a2.97,2.97,0,0,0,.353-.17s-.022-.111-.058-.314l.058-.031a85.218,85.218,0,0,1-1.451-12.23V317.2c1.034-.236,1.69-.328,1.69-.328l.019-.222-.12.025.575-6.585s2.112-4.494.495-6.365a3.93,3.93,0,0,1-.948-1.946c-.278-1.721,0-4.592,3.766-6.977,5.8-3.677,8.06-6.671,8.06-6.671S196.051,285.991,192.5,284.946Zm-11.515,4.569v-3.043c1.076-.053,2.174.072,3.255,0a8.241,8.241,0,0,0,1.57-.264l.261.181A28.626,28.626,0,0,1,180.986,289.516Zm-16.441,47.707c.425.295.853.6,1.273.909.261,1.5.492,2.56.509,2.635A20.809,20.809,0,0,0,164.545,337.223Z" transform="translate(-125.1 -228.786)" fill="url(#c)"/><path d="M265.731,500.32l-.25,1.359-.192,1.04-.35,1.9-3.4,2.376s-.306-.261-.812-.675a59.532,59.532,0,0,0-6.465-4.725,7.228,7.228,0,0,0-1.776-.82Z" transform="translate(-217.097 -394.385)" fill="#ffbdc6"/><path d="M265.724,500.32l-.25,1.359a10.562,10.562,0,0,1-2.24-.114l-7.924.114c-.375-.022-.725-.053-1.053-.086a7.224,7.224,0,0,0-1.776-.82Z" transform="translate(-217.09 -394.385)" opacity="0.1"/><path d="M256.092,494.246s3.964.678,4.189-1.02-2.037-2.593-3.958-2.721-13.475.684-13.475.684-2.037,2.716,5.32,3.169Z" transform="translate(-209.948 -387.288)" fill="#7679b4"/><path d="M265.731,500.32l-.25,1.359-.192,1.04-.35,1.9-3.4,2.376s-.306-.261-.812-.675a59.532,59.532,0,0,0-6.465-4.725,7.228,7.228,0,0,0-1.776-.82Z" transform="translate(-217.097 -394.385)" opacity="0.1"/><path d="M265.724,500.32l-.25,1.359a10.562,10.562,0,0,1-2.24-.114l-7.924.114c-.375-.022-.725-.053-1.053-.086a7.224,7.224,0,0,0-1.776-.82Z" transform="translate(-217.09 -394.385)" opacity="0.1"/><path d="M256.092,494.246s3.964.678,4.189-1.02-2.037-2.593-3.958-2.721-13.475.684-13.475.684-2.037,2.716,5.32,3.169Z" transform="translate(-209.948 -387.288)" fill="#2e4348" opacity="0.79"/><rect width="20.715" height="24.565" transform="translate(34.087 51.143)" fill="#a66477"/><rect width="20.715" height="24.565" transform="translate(34.087 51.143)" opacity="0.1"/><path d="M139.933,449.2a3.318,3.318,0,0,0-1.262.892,49.641,49.641,0,0,0-5.078,6.918c-3.825-4.553.409-8.152,2.224-9.389.439-.3.734-.461.734-.461Z" transform="translate(-130.128 -356.001)" fill="#ffbdc6"/><path d="M270.792,331.09s1.02,7.132,4.528,8.83-4.528,4.867-4.528,4.867l-10.982-4.075s6.226-2.037,4.981-8.038Z" transform="translate(-222.382 -272.192)" fill="#ffbdc6"/><path d="M222.6,485.45l-.25,1.359-.192,1.04-.35,1.9-3.4,2.376s-.306-.261-.812-.675a59.53,59.53,0,0,0-6.465-4.725,7.228,7.228,0,0,0-1.776-.82Z" transform="translate(-185.955 -383.648)" fill="#ffbdc6"/><path d="M222.594,485.45l-.25,1.359a10.561,10.561,0,0,1-2.24-.114l-7.924.114c-.375-.022-.725-.053-1.053-.086a7.224,7.224,0,0,0-1.776-.82Z" transform="translate(-185.948 -383.648)" opacity="0.1"/><path d="M212.915,479.388s3.964.678,4.189-1.02-2.037-2.6-3.964-2.716-13.472.678-13.472.678-2.037,2.716,5.32,3.169Z" transform="translate(-178.77 -376.566)" fill="#2e4348"/><path d="M243.528,493.881l-.35,1.9-3.4,2.376s-.306-.261-.812-.675l4.492-3.683Z" transform="translate(-207.335 -389.677)" opacity="0.1"/><path d="M264.8,506.713q-.234-.114-.473-.242l-.414-.528-5.47-6.949v.122c-.036,1.154-.431,10.354-3.5,11.2-3.283.906-7.246,1.131-9.056-4.981s-5.095-19.47-8.491-20.262l5.036-4.133a30.017,30.017,0,0,1,4.7,7.638c-.05-.239-2.354-11-.453-12.9H263.2s2.546,7.266,4.3,10.868c1.362,2.8,3.4,9.406,4.725,13.878A5.316,5.316,0,0,1,264.8,506.713Z" transform="translate(-206.194 -376.594)" fill="#2e4348"/><path d="M286.425,441.843c-2.549,1.509-13.756.895-17.408.65l-.992-.072c-.108,0,.017-.061.017-.061l.1-1.028,2.716-6.9L285.408,426a12.589,12.589,0,0,0-.37,3.805A88.686,88.686,0,0,0,286.425,441.843Z" transform="translate(-228.282 -340.722)" opacity="0.1"/><path d="M286.114,440.647c-2.549,1.509-13.756.895-17.408.65l-.992-.072h-.164l.181-.047.9-.236,1.923-7.7L285.1,424.81a12.588,12.588,0,0,0-.37,3.805A88.76,88.76,0,0,0,286.114,440.647Z" transform="translate(-227.971 -339.863)" fill="#f2f1f2"/><path d="M285.16,428.539c-2.957.681-9.467,2.685-11.968,7.5-1.668,3.219-3.057,4.6-4.05,5.178l-.992-.072.017-.061.895-.236,1.923-7.7,14.548-8.433A12.589,12.589,0,0,0,285.16,428.539Z" transform="translate(-228.404 -339.798)" opacity="0.1"/><path d="M146.3,447.17l3.4,2.037a3.318,3.318,0,0,0-1.262.892c-.278-.834-2.062-1.979-2.868-2.468C146.009,447.331,146.3,447.17,146.3,447.17Z" transform="translate(-139.895 -356.008)" opacity="0.1"/><path d="M265.379,484.261a.2.2,0,0,1-.239-.031A.816.816,0,0,0,265.379,484.261Z" transform="translate(-226.231 -382.767)" opacity="0.1"/><path d="M186.559,316.275a6.734,6.734,0,0,1-5.209-1.923s-9.056,2.6-12.113,8.491-23.887,17.433-23.887,17.433,3.613,2.037,3.283,3.057l13.7-7.924s4.867-3.51,6.226-4.3,8.83-5.659,10.415,7.585,0,11.674,0,11.674,2.265.792,5.559-5.559S198,337,198,337l.556-6.671s2.021-4.425.473-6.271a3.919,3.919,0,0,1-.906-1.915c-.258-1.7,0-4.522,3.613-6.871,5.559-3.613,7.7-6.565,7.7-6.565s.114-2.151-3.283-3.169-17.208-6.565-17.208-6.565l-.453,1.923,10.868,7.7s-5.434,4.414-9.728,4.3C189.616,312.876,190.408,316.161,186.559,316.275Z" transform="translate(-139.736 -249)" fill="#3596d5"/><path d="M283.592,335.039a22.244,22.244,0,0,1-.625-2.779l-6,1.6a6.615,6.615,0,0,1-.136,3.46,6.454,6.454,0,0,0,6.762-2.279Z" transform="translate(-234.672 -273.037)" opacity="0.1"/><circle cx="6.454" cy="6.454" r="6.454" transform="translate(37.483 51.254)" fill="#ffbdc6"/><path d="M249.941,273.852a46.079,46.079,0,0,1,5.256,1.39,2.6,2.6,0,0,0,1.359.053c.684-.211,1.24-.928,1.946-.906a2.046,2.046,0,0,1,1.184.6,14.213,14.213,0,0,1,1.632,1.448c1.215,1.32,1.971,3.1,3.08,4.533s2.857,2.552,4.433,1.893c-1.07,4.169-4.583,7.357-8.38,7.616-1.515.1-3.057-.211-4.533.233a3.969,3.969,0,0,1-1.145.278c-.834,0-1.523-.775-2.051-1.529a64.767,64.767,0,0,0-3.613-5.4,2.954,2.954,0,0,0-1.648-1.14,3.052,3.052,0,0,0-1.823.511,8.657,8.657,0,0,0-2.668,1.851,3.7,3.7,0,0,0-.9,3.255,7.949,7.949,0,0,1,.556,1.821c0,1.028-.895,1.782-1.076,2.779a10.735,10.735,0,0,0-.044,1.267,5.17,5.17,0,0,1-1.915,3.36,2.417,2.417,0,0,0-.876,1.215c-.072.353,0,.728-.047,1.087a1.973,1.973,0,0,1-1.812,1.459,5.254,5.254,0,0,1-2.718-.322,3.125,3.125,0,0,0,1.52-3.335c-.35-1.837-2.2-3.155-2.04-5.028a5.817,5.817,0,0,1,.511-1.654A15.135,15.135,0,0,0,235,288.05a5.311,5.311,0,0,0-.053-2.5,7.9,7.9,0,0,0-1.128-1.9,10.791,10.791,0,0,1-1.306-2.677,1.876,1.876,0,0,1-.125-.884,1.832,1.832,0,0,1,.556-.917,7.557,7.557,0,0,1,3.441-2.468,7.715,7.715,0,0,1,1.946-.075,22.85,22.85,0,0,0,3.394-.145c.928-.108,2.5-.094,3.285-.7.731-.556,1.145-1.265,2.048-1.62A6,6,0,0,1,249.941,273.852Z" transform="translate(-202.574 -230.822)" opacity="0.1"/><path d="M308.48,513.76s3.736,7.357,2.6,9.623" transform="translate(-257.525 -404.089)" opacity="0.1"/><path d="M318.522,562.552l-5.47-6.949v.122s-.317-2.246.725-1.49c2.282,1.651,5.934,4.358,6.012,4.825A13.337,13.337,0,0,1,318.522,562.552Z" transform="translate(-260.793 -433.203)" opacity="0.1"/><g transform="translate(5.728 49.951)" opacity="0.1"><path d="M302.321,348.762a2.776,2.776,0,0,1-1.031,2.868,2.564,2.564,0,0,0,2.329-2.96,7.243,7.243,0,0,1-1.3.092Z" transform="translate(-258.061 -334.837)"/><path d="M147.008,380.265s20.829-11.546,23.887-17.433c2.193-4.225,7.477-6.757,10.284-7.852-2.048.687-8.942,3.319-11.532,8.305-3.057,5.887-23.887,17.433-23.887,17.433Z" transform="translate(-145.76 -339.393)"/><path d="M306.121,311.927a24.806,24.806,0,0,0,6.932-3.855l-10.868-7.7.247-1.056-1.039-.417-.453,1.923,10.868,7.7A26.222,26.222,0,0,1,306.121,311.927Z" transform="translate(-257.808 -298.9)"/><path d="M319.83,436.265a26.929,26.929,0,0,1,4.261-1.076l.019-.22A28.846,28.846,0,0,0,319.83,436.265Z" transform="translate(-271.448 -397.15)"/><path d="M248.576,428.268h-.1a.2.2,0,0,1-.239-.031.834.834,0,0,0,.239.031c.372-.217.931-1.907-.239-11.69-1.251-10.445-6.159-9.625-8.847-8.425,2.746-.756,6.526-.1,7.6,8.878,1.17,9.784.612,11.477.239,11.691A2.5,2.5,0,0,0,248.576,428.268Z" transform="translate(-213.366 -377.293)"/><path d="M266.979,483.861a.83.83,0,0,1-.239-.031.2.2,0,0,0,.239.031Z" transform="translate(-233.114 -432.429)"/></g><path d="M249.941,273.062a46.089,46.089,0,0,1,5.256,1.39,2.6,2.6,0,0,0,1.359.053c.684-.211,1.24-.928,1.946-.906a2.045,2.045,0,0,1,1.184.6,14.2,14.2,0,0,1,1.632,1.448c1.215,1.32,1.971,3.1,3.08,4.533s2.857,2.552,4.433,1.893c-1.07,4.169-4.583,7.357-8.38,7.616-1.515.1-3.057-.211-4.533.233a3.968,3.968,0,0,1-1.145.278c-.834,0-1.523-.775-2.051-1.529a64.747,64.747,0,0,0-3.613-5.4,2.954,2.954,0,0,0-1.648-1.14,3.052,3.052,0,0,0-1.823.511,8.656,8.656,0,0,0-2.668,1.851,3.7,3.7,0,0,0-.9,3.255,7.95,7.95,0,0,1,.556,1.821c0,1.028-.9,1.782-1.076,2.779a10.728,10.728,0,0,0-.044,1.267,5.17,5.17,0,0,1-1.915,3.36,2.418,2.418,0,0,0-.876,1.215c-.072.353,0,.728-.047,1.087a1.973,1.973,0,0,1-1.812,1.459,5.253,5.253,0,0,1-2.718-.322,3.125,3.125,0,0,0,1.52-3.335c-.35-1.837-2.2-3.155-2.04-5.028a5.817,5.817,0,0,1,.511-1.654A15.137,15.137,0,0,0,235,287.26a5.312,5.312,0,0,0-.053-2.5,7.9,7.9,0,0,0-1.128-1.9,10.789,10.789,0,0,1-1.306-2.677,1.876,1.876,0,0,1-.125-.884,1.832,1.832,0,0,1,.556-.917,7.557,7.557,0,0,1,3.441-2.468,7.715,7.715,0,0,1,1.946-.075,22.867,22.867,0,0,0,3.394-.145c.928-.108,2.5-.095,3.285-.7.731-.556,1.145-1.265,2.048-1.62A6,6,0,0,1,249.941,273.062Z" transform="translate(-202.574 -230.252)" fill="#fb302f"/><path d="M805.565,202.252h0v-.1a.234.234,0,0,0-.017-.106H805.5v-.231c-.111-2.577-3.674-8.06-5.1-6.46-1.251,1.406.636,4.964,1.6,6.565l.086.145-.047-.031s-3.977,11.863-4.447,12.324-3.744,9.789-8.06,10.84c-.853.2-1.562.386-2.157.556l.047-.158a17.189,17.189,0,0,0,.759-2.779,3.6,3.6,0,0,0-.511-2.729c-.25-.245-.556-.278-.762-.667a3.08,3.08,0,0,1-.211-1.07l-.367-4.5.256-.078c1.545-.495,3.044-1.668,3.219-3.246a1.656,1.656,0,0,1-.164.053q.03-.138.047-.278c-1.3.511-2.5-.834-3.752-1.437-2.06-1.009-4.414-.058-6.54.172-2.41.264-4.7-.737-7.16-.556-1.34.1-2.829,1.012-2.757,2.332a9.335,9.335,0,0,0,.767,2.035c.534,1.682-.653,3.369-1.693,4.8a7.149,7.149,0,0,0-1.456,3.2c-2.393-2.5-4.981-5.392-5.281-6.479L754.889,202.5s-.164.175-.428.434c-.042-.128-.092-.278-.147-.428-.884-2.477-3.385-8.477-6.557-7.377s1.315,7.252,3.266,9.7l.278.339a.878.878,0,0,1-.495-.022l7.721,13.244s1.4,2.535,2.69,3.224c0,0,9.592,12.094,9.709,14.512S775.24,245,775.24,245s1.4,10.481-1.053,12.324h.406q-.175.171-.359.375c-1.82,2.018-4.147,6.343-.967,13.7,4.678,10.84,5.381,15.087,5.381,15.087s-8.894.461-10.645.806c-1.551.306-7.58.52-8.958.556-.492-.573-1.946-1.84-3.908,0-2.457,2.3-4.211,10.006-4.211,10.006s-.937,6.22,2.223,4.606c0,0,3.744-5.184,4.795-5.414.523-.114,1.076-.884,1.5-1.626l.022.014h0c.025,0,.128-.056.295-.122h0a9.012,9.012,0,0,1,4.611-.681,84.913,84.913,0,0,0,9.056.239c-.939,2.251-2.624,8.06-2.624,8.06s-.7,5.417,1.632,5.195c1.668-.164,4.225-4.425,5.559-6.857.967-.709,3.739-3.249,5.787-3.057l13.8-5.3s3.274-1.843,1.52-7.947c-1.39-4.853-5.345-14.787-6.907-18.659h0l-.047-.1c-.378-.937-.606-1.493-.606-1.493h0a22.842,22.842,0,0,1-1.254-5.478c-.014-.147-.025-.3-.036-.445a2.455,2.455,0,0,0,.542-.314s-1.287-13.013,0-14.4h0l.022-.025h0v-.017h0l.022-.028h0l.05-.064h0l.061-.078h0c.07-.092.153-.206.247-.345h0a9.541,9.541,0,0,0,1.715-6.448h0q-.025-.189-.061-.381h0a7.938,7.938,0,0,0-.8-2.257,6.278,6.278,0,0,1-.1-.892v-.789a2.672,2.672,0,0,1,.042-.4v-.05a.5.5,0,0,1,.025-.153v-.064a.729.729,0,0,1,.033-.15v-.053c.017-.067.033-.133.056-.2v-.033q.025-.083.056-.164l.025-.064.056-.133.028-.067c.022-.05.047-.1.072-.15l.019-.042q.05-.092.106-.181l.031-.047.092-.131.044-.058.1-.117.044-.05c.05-.053.1-.106.156-.156,1.52-1.39,8.305-11.632,8.305-11.632s1.637-2.3,1.637-3.8C802.963,214.829,805.856,205.184,805.565,202.252Zm-18.214,86.094c-.167-1.579-.334-3.535-.486-5.559l2.646,4.125S789.26,288.168,787.351,288.346Z" transform="translate(-573.91 -173.928)" fill="url(#d)"/><path d="M772.6,524.63s-1.584-2.5-3.964-.225-4.075,9.848-4.075,9.848-.906,6.115,2.151,4.528c0,0,3.613-5.095,4.642-5.32s2.151-3.057,2.151-3.057Z" transform="translate(-586.751 -411.085)" fill="#a8a8a8"/><path d="M839.655,548.318s-2.151-1.02-2.829-.225-2.943,8.716-2.943,8.716-.678,5.209,1.584,4.981,6.226-8.383,6.226-8.383Z" transform="translate(-636.824 -428.66)" fill="#493545"/><path d="M839.655,548.318s-2.151-1.02-2.829-.225-2.943,8.716-2.943,8.716-.678,5.209,1.584,4.981,6.226-8.383,6.226-8.383Z" transform="translate(-636.824 -428.66)" fill="#a8a8a8" opacity="0.74"/><path d="M859.385,458.472l4.867,7.585s-.339,1.7-3.283,1.359l-10.075,6.34s-.875,7.719,1.923,7.018c.453-.114,3.613-3.4,5.887-3.169l13.361-5.209s3.169-1.812,1.47-7.81-7.313-19.907-7.313-19.907l-8.875,4.964Z" transform="translate(-649.082 -354.21)" fill="#3e3d77"/><path d="M859.385,458.472l4.867,7.585s-.339,1.7-3.283,1.359l-10.075,6.34s-.875,7.719,1.923,7.018c.453-.114,3.613-3.4,5.887-3.169l13.361-5.209s3.169-1.812,1.47-7.81-7.313-19.907-7.313-19.907l-8.875,4.964Z" transform="translate(-649.082 -354.21)" fill="#2e4348" opacity="0.91"/><path d="M817.337,448.465c.678,4.3-3.169,4.642-3.169,4.642s-17.322.339-19.359-.114-4.756.792-4.756.792c-3.51-2.151-.678-7.471-.678-7.471s7.246-.225,8.944-.556,10.3-.8,10.3-.8-.678-4.189-5.209-14.829c-3.077-7.227-.834-11.479.937-13.461A7.45,7.45,0,0,1,805.9,415.3l13.925.678a18.057,18.057,0,0,0,.078,2.1,22.409,22.409,0,0,0,1.848,6.949c-.792,0-5.887,4.756-5.887,4.756S816.656,444.165,817.337,448.465Z" transform="translate(-603.977 -332.996)" fill="#2e4348"/><path d="M790.4,446.788s7.246-.225,8.944-.556,10.3-.792,10.3-.792-.678-4.189-5.209-14.829c-3.077-7.227-.834-11.479.937-13.461a7.451,7.451,0,0,1,1.554-1.368l12.9.628v-.4L805.9,415.33a7.455,7.455,0,0,0-1.554,1.368c-1.762,1.985-4.014,6.234-.937,13.461,4.542,10.632,5.214,14.82,5.214,14.82s-8.616.453-10.3.792-8.944.556-8.944.556-2.829,5.323.678,7.482c0,0,.106-.05.278-.122C788,451.288,790.4,446.788,790.4,446.788Z" transform="translate(-603.98 -333.018)" opacity="0.1"/><rect width="7.018" height="17.772" transform="translate(200.113 40.753)" fill="#493545"/><rect width="7.018" height="17.772" transform="translate(200.113 40.753)" fill="#3e526f" opacity="0.55"/><path d="M876.532,248.625c.242.067.514.075.678.409a2.5,2.5,0,0,1,.164.834l.442,5.492a3.053,3.053,0,0,0,.206,1.051c.186.372.495.417.736.656a3.633,3.633,0,0,1,.495,2.682,17.611,17.611,0,0,1-.734,2.724,25.639,25.639,0,0,1-1.159,3.794c-.531,1.078-1.5,1.668-2.118.762s-.539-2.735-.656-4.233c-.195-2.5-1.17-4.658-1.237-7.177a28.772,28.772,0,0,1,.834-5.87c.245-1.326.259-2.935.614-4.128C875.1,247.037,875.662,248.386,876.532,248.625Z" transform="translate(-665.387 -210.478)" fill="#493545"/><path d="M876.532,248.625c.242.067.514.075.678.409a2.5,2.5,0,0,1,.164.834l.442,5.492a3.053,3.053,0,0,0,.206,1.051c.186.372.495.417.736.656a3.633,3.633,0,0,1,.495,2.682,17.611,17.611,0,0,1-.734,2.724,25.639,25.639,0,0,1-1.159,3.794c-.531,1.078-1.5,1.668-2.118.762s-.539-2.735-.656-4.233c-.195-2.5-1.17-4.658-1.237-7.177a28.772,28.772,0,0,1,.834-5.87c.245-1.326.259-2.935.614-4.128C875.1,247.037,875.662,248.386,876.532,248.625Z" transform="translate(-665.387 -210.478)" fill="#3e526f" opacity="0.79"/><path d="M757.8,206.54l-2.715,2.265s-.322-.378-.8-.99c-1.887-2.41-6.226-8.455-3.16-9.536s5.49,4.814,6.346,7.249C757.686,206.146,757.8,206.54,757.8,206.54Z" transform="translate(-576.367 -176.201)" fill="#c77485"/><path d="M940.892,205.925c-1.131,1.7-2.715,0-2.715,0s-.2-.3-.489-.792c-.931-1.576-2.757-5.07-1.548-6.454,1.39-1.582,4.834,3.816,4.939,6.348A1.506,1.506,0,0,1,940.892,205.925Z" transform="translate(-710.438 -176.379)" fill="#c77485"/><path d="M854.08,286.488s2.265,7.246,1.584,9.395,4.87,4.65,4.87,4.65h6.34s2.265-4.642,1.7-6-5.434-2.376-5.434-2.376-2.829,0-2.716-7.585Z" transform="translate(-651.476 -238.602)" fill="#c77485"/><path d="M768.779,225.712l-2.715,2.265s-.323-.378-.8-.99c.987-.175,2.518-1.615,3.188-2.288C768.662,225.317,768.779,225.712,768.779,225.712Z" transform="translate(-587.344 -195.373)" opacity="0.1"/><path d="M945.955,223.136c-1.131,1.7-2.716,0-2.716,0s-.2-.3-.489-.792l.036-.114c.734.525,3.016.078,3.355,0a1.507,1.507,0,0,1-.186.906Z" transform="translate(-715.501 -193.589)" opacity="0.1"/><path d="M861.565,418.065c-3.5,1.6-14.881-1.248-15.565-1.418a7.453,7.453,0,0,1,1.554-1.368l13.925.678A18.082,18.082,0,0,0,861.565,418.065Z" transform="translate(-645.642 -332.982)" opacity="0.1"/><path d="M790.872,248.315s-2.716.906-6.565-2.6c0,0-8.616-8.491-9.172-10.529l-6.671-11.674s-2.83,3.057-3.964,2.6l7.471,13.019s1.359,2.5,2.6,3.169c0,0,9.283,11.888,9.395,14.264s4.183,8.741,4.183,8.741,1.359,10.3-1.02,12.113c0,0,13.244,3.4,16.074,1.131,0,0-1.245-12.786,0-14.15,0,0,3.849-4.528,1.245-9.509,0,0-.556-2.716.906-4.075s8.038-11.435,8.038-11.435,1.584-2.265,1.584-3.736c0,0,2.943-9.962,2.5-12.566,0,0-2.6.556-3.4,0,0,0-3.85,11.674-4.3,12.113s-3.613,9.623-7.81,10.643-4.867,1.47-4.867,1.47,8.15,5.095,4.189,7.357S790.872,248.315,790.872,248.315Z" transform="translate(-586.795 -194.203)" fill="#3596d5"/><path d="M860.994,289.386a21.623,21.623,0,0,1-.164-3.216l-6.34,1.923a8.541,8.541,0,0,1,.4,1.3,7.557,7.557,0,0,0,2.546,1.076A5.773,5.773,0,0,0,860.994,289.386Z" transform="translate(-651.772 -239.758)" opacity="0.1"/><circle cx="5.887" cy="5.887" r="5.887" transform="translate(199.66 38.602)" fill="#c77485"/><path d="M826.518,246.413c-1.3.1-2.741,1-2.668,2.293a8.721,8.721,0,0,0,.742,2c.514,1.654-.631,3.313-1.637,4.725s-1.946,3.283-1.084,4.778a11.776,11.776,0,0,0,.795,1.037c1.065,1.437,1.051,3.377,1.523,5.1a8.953,8.953,0,0,0,10.518,6.393,5.6,5.6,0,0,1-1.181-3.786,6.51,6.51,0,0,0,0-2.938c-.495-1.176-1.946-1.64-2.693-2.668a4.265,4.265,0,0,1-.336-3.68c.361-1.226.987-2.363,1.287-3.613a10.9,10.9,0,0,1,.278-1.081,4.832,4.832,0,0,1,3.613-2.716c1.529-.37,3.135-.392,4.628-.878a4.221,4.221,0,0,0,3.116-3.191c-1.256.5-2.421-.809-3.633-1.412-2-.99-4.272-.058-6.329.17C831.113,247.211,828.889,246.241,826.518,246.413Z" transform="translate(-627.976 -210.994)" opacity="0.1"/><path d="M826.108,245.6c-1.3.1-2.741,1-2.668,2.293a8.727,8.727,0,0,0,.742,2c.514,1.654-.631,3.313-1.637,4.725s-1.946,3.283-1.084,4.778a11.76,11.76,0,0,0,.795,1.037c1.065,1.437,1.051,3.377,1.523,5.1a8.953,8.953,0,0,0,10.518,6.393,5.6,5.6,0,0,1-1.181-3.786,6.514,6.514,0,0,0,0-2.938c-.495-1.176-1.946-1.64-2.693-2.668a4.265,4.265,0,0,1-.336-3.68c.361-1.226.987-2.363,1.287-3.613a10.832,10.832,0,0,1,.278-1.081,4.832,4.832,0,0,1,3.613-2.716c1.529-.37,3.135-.392,4.628-.878a4.22,4.22,0,0,0,3.116-3.191c-1.256.5-2.421-.809-3.633-1.412-2-.989-4.272-.058-6.329.17C830.708,246.4,828.493,245.417,826.108,245.6Z" transform="translate(-627.68 -210.409)" fill="#3e526f"/><path d="M885.65,326.3a18.978,18.978,0,0,1,2.821,3.032" transform="translate(-674.272 -268.733)" opacity="0.1"/><path d="M880.764,371.51a25.348,25.348,0,0,0-4.3.339,20.229,20.229,0,0,1-4.642,0" transform="translate(-664.286 -301.377)" opacity="0.1"/><g transform="translate(177.702 28.868)" opacity="0.1"><path d="M885.969,317.567a2.83,2.83,0,0,1-.814.311,3.113,3.113,0,0,0,2.174-.311c3.964-2.265-4.189-7.357-4.189-7.357H881.78S889.932,315.3,885.969,317.567Z" transform="translate(-849.18 -285.984)"/><path d="M951.457,223.256a1.186,1.186,0,0,0-.028-.206,13.3,13.3,0,0,1-1.409.214A6.243,6.243,0,0,0,951.457,223.256Z" transform="translate(-898.452 -223.05)"/><path d="M788.488,285.331c2.376-1.812,1.02-12.113,1.02-12.113s-4.075-6.34-4.189-8.716-9.395-14.264-9.395-14.264c-1.245-.678-2.6-3.169-2.6-3.169s-7.7-12.566-8.83-13.019l7.471,13.019s1.359,2.5,2.6,3.169c0,0,9.283,11.888,9.395,14.264s4.186,8.725,4.186,8.725,1.359,10.3-1.02,12.113c0,0,8.141,2.087,13.022,1.9A68.12,68.12,0,0,1,788.488,285.331Z" transform="translate(-764.49 -230.993)"/><path d="M858.833,313.966l-.067-.086a1.793,1.793,0,0,1-.236.053C858.636,313.947,858.736,313.958,858.833,313.966Z" transform="translate(-832.392 -288.634)"/></g><g transform="translate(216.304 28.855)" opacity="0.1"><path d="M920.7,223l-.07.014c-.119,3.477-2.532,11.646-2.532,11.646,0,1.47-1.584,3.736-1.584,3.736s-6.565,10.076-8.038,11.435-.906,4.075-.906,4.075l.014.028a4.11,4.11,0,0,1,1-3.2c1.47-1.359,8.038-11.435,8.038-11.435s1.584-2.265,1.584-3.736C918.211,235.58,921.155,225.618,920.7,223Z" transform="translate(-906.326 -223)"/><path d="M903.37,351.864c.17.962.056-.056.114.906a9.588,9.588,0,0,0,2.021-7.291A9.911,9.911,0,0,1,903.37,351.864Z" transform="translate(-903.37 -311.437)"/></g><path d="M118.87,0c65.65,0,118.87,5.112,118.87,11.418S184.52,22.836,118.87,22.836,0,17.724,0,11.418,53.22,0,118.87,0Z" transform="translate(11.692 161.047)" fill="#ecf0f1" opacity="0.61"/><path d="M424.971,584.031s-4.047-13.745.759-23.859a21.708,21.708,0,0,0,1.757-13.619,36.511,36.511,0,0,0-1.929-6.393" transform="translate(-340.487 -423.152)" fill="none" stroke="#535461" stroke-miterlimit="10" stroke-width="2"/><path d="M426.093,508.651c0,1.684-3.057,6.568-3.057,6.568s-3.057-4.884-3.057-6.568a3.057,3.057,0,1,1,6.1,0Z" transform="translate(-338.026 -398.03)" fill="#ffc93c"/><path d="M444.189,538.023c-.914,1.415-6.129,3.855-6.129,3.855s.094-5.756,1.009-7.171a3.057,3.057,0,1,1,5.12,3.316Z" transform="translate(-351.088 -418.074)" fill="#ffc93c"/><path d="M440.547,592.825c-1.5.759-7.227.234-7.227.234s2.988-4.922,4.492-5.681a3.057,3.057,0,1,1,2.746,5.445Z" transform="translate(-347.666 -456.93)" fill="#ffc93c"/><path d="M430.516,637.47c-1.354,1-7.1,1.454-7.1,1.454s2.112-5.356,3.469-6.359a3.057,3.057,0,0,1,3.613,4.9Z" transform="translate(-340.517 -489.551)" fill="#ffc93c"/><path d="M412.171,551.77c1.209,1.173,6.837,2.39,6.837,2.39s-1.39-5.59-2.588-6.765a3.057,3.057,0,1,0-4.25,4.375Z" transform="translate(-331.608 -427.637)" fill="#ffc93c"/><path d="M399.674,601.825c1.5.759,7.227.234,7.227.234s-2.977-4.922-4.481-5.667a3.057,3.057,0,0,0-2.746,5.445Z" transform="translate(-322.3 -463.584)" fill="#ffc93c"/><path d="M395.348,652.672c1.354,1,7.1,1.454,7.1,1.454s-2.112-5.356-3.469-6.359a3.057,3.057,0,1,0-3.613,4.9Z" transform="translate(-319.197 -500.295)" fill="#ffc93c"/><path d="M426.093,508.651c0,1.684-3.057,6.568-3.057,6.568s-3.057-4.884-3.057-6.568a3.057,3.057,0,1,1,6.1,0Z" transform="translate(-338.026 -398.03)" fill="#3596d5" opacity="0.1"/><path d="M444.189,538.023c-.914,1.415-6.129,3.855-6.129,3.855s.094-5.756,1.009-7.171a3.057,3.057,0,1,1,5.12,3.316Z" transform="translate(-351.088 -418.074)" fill="#ffc93c" opacity="0.1"/><path d="M440.547,592.825c-1.5.759-7.227.234-7.227.234s2.988-4.922,4.492-5.681a3.057,3.057,0,1,1,2.746,5.445Z" transform="translate(-347.666 -456.93)" fill="#ffc93c" opacity="0.1"/><path d="M430.516,637.47c-1.354,1-7.1,1.454-7.1,1.454s2.112-5.356,3.469-6.359a3.057,3.057,0,0,1,3.613,4.9Z" transform="translate(-340.517 -489.551)" fill="#ffc93c" opacity="0.1"/><path d="M412.171,551.77c1.209,1.173,6.837,2.39,6.837,2.39s-1.39-5.59-2.588-6.765a3.057,3.057,0,1,0-4.25,4.375Z" transform="translate(-331.608 -427.637)" fill="#ffc93c" opacity="0.1"/><path d="M399.674,601.825c1.5.759,7.227.234,7.227.234s-2.977-4.922-4.481-5.667a3.057,3.057,0,0,0-2.746,5.445Z" transform="translate(-322.3 -463.584)" fill="#ffc93c" opacity="0.1"/><path d="M395.348,652.672c1.354,1,7.1,1.454,7.1,1.454s-2.112-5.356-3.469-6.359a3.057,3.057,0,1,0-3.613,4.9Z" transform="translate(-319.197 -500.295)" fill="#ffc93c" opacity="0.1"/><path d="M719.611,584.741s-4.047-13.745.759-23.859a21.708,21.708,0,0,0,1.757-13.619,36.506,36.506,0,0,0-1.929-6.393" transform="translate(-553.232 -423.664)" fill="none" stroke="#535461" stroke-miterlimit="10" stroke-width="2"/><path d="M720.735,510.524c0,1.684-3.057,6.568-3.057,6.568s-3.057-4.883-3.057-6.568a3.057,3.057,0,0,1,6.1,0Z" transform="translate(-550.779 -399.708)" fill="#ffc93c"/><path d="M738.839,538.723c-.915,1.415-6.129,3.855-6.129,3.855s.095-5.756,1.009-7.171a3.057,3.057,0,1,1,5.12,3.316Z" transform="translate(-563.841 -418.579)" fill="#ffc93c"/><path d="M735.227,593.51c-1.5.759-7.227.233-7.227.233s2.988-4.922,4.492-5.681a3.057,3.057,0,1,1,2.735,5.448Z" transform="translate(-560.44 -457.42)" fill="#ffc93c"/><path d="M725.156,638.17c-1.354,1-7.1,1.454-7.1,1.454s2.112-5.356,3.469-6.359a3.058,3.058,0,0,1,3.613,4.9Z" transform="translate(-553.263 -490.057)" fill="#ffc93c"/><path d="M706.83,552.469c1.209,1.173,6.837,2.39,6.837,2.39s-1.39-5.59-2.588-6.765a3.057,3.057,0,1,0-4.25,4.375Z" transform="translate(-544.368 -428.142)" fill="#ffc93c"/><path d="M694.286,602.489c1.5.759,7.227.233,7.227.233s-2.988-4.922-4.492-5.681a3.057,3.057,0,0,0-2.746,5.445Z" transform="translate(-535.017 -464.054)" fill="#ffc93c"/><path d="M691.135,654.21c1.354,1,7.1,1.454,7.1,1.454s-2.112-5.356-3.469-6.359a3.057,3.057,0,0,0-3.613,4.9Z" transform="translate(-533.087 -501.638)" fill="#ffc93c"/><path d="M720.735,510.524c0,1.684-3.057,6.568-3.057,6.568s-3.057-4.883-3.057-6.568a3.057,3.057,0,0,1,6.1,0Z" transform="translate(-550.779 -399.708)" fill="#ffc93c" opacity="0.1"/><path d="M738.839,538.723c-.915,1.415-6.129,3.855-6.129,3.855s.095-5.756,1.009-7.171a3.057,3.057,0,1,1,5.12,3.316Z" transform="translate(-563.841 -418.579)" fill="#ffc93c" opacity="0.1"/><path d="M735.227,593.51c-1.5.759-7.227.233-7.227.233s2.988-4.922,4.492-5.681a3.057,3.057,0,1,1,2.735,5.448Z" transform="translate(-560.44 -457.42)" fill="#ffc93c" opacity="0.1"/><path d="M725.156,638.17c-1.354,1-7.1,1.454-7.1,1.454s2.112-5.356,3.469-6.359a3.058,3.058,0,0,1,3.613,4.9Z" transform="translate(-553.263 -490.057)" fill="#ffc93c" opacity="0.1"/><path d="M706.83,552.469c1.209,1.173,6.837,2.39,6.837,2.39s-1.39-5.59-2.588-6.765a3.057,3.057,0,1,0-4.25,4.375Z" transform="translate(-544.368 -428.142)" fill="#ffc93c" opacity="0.1"/><path d="M694.286,602.489c1.5.759,7.227.233,7.227.233s-2.988-4.922-4.492-5.681a3.057,3.057,0,0,0-2.746,5.445Z" transform="translate(-535.017 -464.054)" fill="#ffc93c" opacity="0.1"/><path d="M691.135,654.21c1.354,1,7.1,1.454,7.1,1.454s-2.112-5.356-3.469-6.359a3.057,3.057,0,0,0-3.613,4.9Z" transform="translate(-533.087 -501.638)" fill="#ffc93c" opacity="0.1"/><path d="M748.558,128.2h-1.746a1.223,1.223,0,1,0,0-2.443H732.659a1.223,1.223,0,0,0,0,2.443H734.4a1.223,1.223,0,0,0,0,2.443h-2.443a1.223,1.223,0,1,0,0,2.443H746.1a1.223,1.223,0,1,0,0-2.443h2.454a1.223,1.223,0,0,0,0-2.443Z" transform="translate(-562.375 -123.929)" fill="#dee3f3" opacity="0.5"/><path d="M465.441,155.356h-1.329a.931.931,0,1,0,0-1.859H453.35a.931.931,0,0,0,0,1.859h1.329a.931.931,0,1,0,0,1.859h-1.859a.931.931,0,1,0,0,1.859h10.762a.931.931,0,1,0,0-1.859h1.859a.931.931,0,0,0,0-1.859Z" transform="translate(-361.036 -143.959)" fill="#dee3f3" opacity="0.5"/><path d="M173.775,634s4.864,9.547.9,14.77.361,19.456.361,19.456" transform="translate(-159.703 -490.909)" fill="none" stroke="#ffc93c" stroke-miterlimit="10" stroke-width="1"/><path d="M173.982,614.6a5.626,5.626,0,0,1-1.351,3.335,4.793,4.793,0,0,1,0-6.671A5.626,5.626,0,0,1,173.982,614.6Z" transform="translate(-158.459 -474.489)" fill="#ffc93c"/><path d="M178.471,634s-4.864,9.547-.9,14.77-.361,19.456-.361,19.456" transform="translate(-161.878 -490.909)" fill="none" stroke="#ffc93c" stroke-miterlimit="10" stroke-width="1"/><path d="M179.67,614.6a5.625,5.625,0,0,0,1.351,3.335,4.793,4.793,0,0,0,0-6.671A5.626,5.626,0,0,0,179.67,614.6Z" transform="translate(-164.517 -474.489)" fill="#ffc93c"/><path d="M179.67,614.6a5.625,5.625,0,0,0,1.351,3.335,4.793,4.793,0,0,0,0-6.671A5.626,5.626,0,0,0,179.67,614.6Z" transform="translate(-164.517 -474.489)" opacity="0.1"/><path d="M189.995,634s4.864,9.547.9,14.77.361,19.456.361,19.456" transform="translate(-171.415 -490.909)" fill="none" stroke="#ffc93c" stroke-miterlimit="10" stroke-width="1"/><path d="M190.152,614.6a5.625,5.625,0,0,1-1.351,3.335,4.793,4.793,0,0,1,0-6.671A5.626,5.626,0,0,1,190.152,614.6Z" transform="translate(-170.135 -474.489)" fill="#ffc93c"/><path d="M185.905,642.115a5.616,5.616,0,0,1-3.285,1.465,4.785,4.785,0,0,1,4.622-4.8A5.675,5.675,0,0,1,185.905,642.115Z" transform="translate(-166.647 -494.36)" fill="#ffc93c"/><path d="M186.365,665.815a5.615,5.615,0,0,1-3.285,1.465,4.786,4.786,0,0,1,4.622-4.8A5.612,5.612,0,0,1,186.365,665.815Z" transform="translate(-166.979 -511.473)" fill="#ffc93c"/><path d="M161.674,683.272a5.613,5.613,0,0,1,1.165,3.4,4.787,4.787,0,0,1-4.369-5.034A5.613,5.613,0,0,1,161.674,683.272Z" transform="translate(-149.209 -525.308)" fill="#ffc93c"/><path d="M164.844,635.031A5.614,5.614,0,0,1,166.876,638a4.785,4.785,0,0,1-5.556-3.683A5.557,5.557,0,0,1,164.844,635.031Z" transform="translate(-151.268 -491.106)" fill="#ffc93c"/><path d="M164.844,635.031A5.614,5.614,0,0,1,166.876,638a4.785,4.785,0,0,1-5.556-3.683A5.557,5.557,0,0,1,164.844,635.031Z" transform="translate(-151.268 -491.106)" opacity="0.1"/><path d="M194.671,634s-4.864,9.547-.9,14.77-.361,19.456-.361,19.456" transform="translate(-173.576 -490.909)" fill="none" stroke="#ffc93c" stroke-miterlimit="10" stroke-width="1"/><path d="M195.87,614.6a5.625,5.625,0,0,0,1.351,3.335,4.793,4.793,0,0,0,0-6.671A5.626,5.626,0,0,0,195.87,614.6Z" transform="translate(-176.214 -474.489)" fill="#ffc93c"/><path d="M195.87,614.6a5.625,5.625,0,0,0,1.351,3.335,4.793,4.793,0,0,0,0-6.671A5.626,5.626,0,0,0,195.87,614.6Z" transform="translate(-176.214 -474.489)" opacity="0.1"/><path d="M193.66,647.586a5.692,5.692,0,0,0-1.39,3.335,5.608,5.608,0,0,0,3.3-1.426,5.692,5.692,0,0,0,1.39-3.335A5.609,5.609,0,0,0,193.66,647.586Z" transform="translate(-173.615 -499.689)" fill="#ffc93c"/><path d="M193.66,647.586a5.692,5.692,0,0,0-1.39,3.335,5.608,5.608,0,0,0,3.3-1.426,5.692,5.692,0,0,0,1.39-3.335A5.609,5.609,0,0,0,193.66,647.586Z" transform="translate(-173.615 -499.689)" opacity="0.1"/><path d="M202.77,680.4a5.692,5.692,0,0,0-1.39,3.335,5.608,5.608,0,0,0,3.3-1.426,5.692,5.692,0,0,0,1.39-3.335A5.59,5.59,0,0,0,202.77,680.4Z" transform="translate(-180.193 -523.38)" fill="#ffc93c"/><path d="M193,664.615s2.927-4.614,7.038-4.725" transform="translate(-174.142 -509.603)" fill="none" stroke="#ffc93c" stroke-miterlimit="10" stroke-width="1"/><path d="M166.488,654.585s-2.927-4.614-7.038-4.725" transform="translate(-149.917 -502.361)" fill="none" stroke="#ffc93c" stroke-miterlimit="10" stroke-width="1"/><path d="M183.4,678.285s2.927-4.614,7.038-4.725" transform="translate(-167.21 -519.473)" fill="none" stroke="#ffc93c" stroke-miterlimit="10" stroke-width="1"/><circle cx="0.759" cy="0.759" r="0.759" transform="translate(24.995 149.503)" fill="#ffc93c"/><circle cx="0.759" cy="0.759" r="0.759" transform="translate(8.846 146.779)" fill="#ffc93c"/><path d="M172.868,683.725s-2.927-4.614-7.038-4.725" transform="translate(-154.524 -523.401)" fill="none" stroke="#ffc93c" stroke-miterlimit="10" stroke-width="1"/><circle cx="0.759" cy="0.759" r="0.759" transform="translate(10.619 154.884)" fill="#ffc93c"/><circle cx="0.759" cy="0.759" r="0.759" transform="translate(22.524 153.367)" fill="#ffc93c"/><path d="M177.42,719.145s-7.054-1.412-8.939-3.294-10.345-5.173-11.287-2.821-12.7,10.348-4.7,11.76,18.814,1.882,21.166.94S177.42,719.145,177.42,719.145Z" transform="translate(-142.891 -547.384)" fill="#a8a8a8"/><path d="M152.5,741.79c8,1.412,18.814,1.882,21.166.94,1.79-.717,3.035-4.169,3.527-5.759l.236.05s-1.412,5.645-3.763,6.585-13.169.47-21.166-.939c-2.307-.409-2.968-1.365-2.718-2.574C149.975,740.87,150.781,741.487,152.5,741.79Z" transform="translate(-142.9 -565.259)" opacity="0.2"/><path d="M1003.284,641.78s2.329,3.057-1.076,7.644-6.212,8.48-5.075,11.349c0,0,5.136-8.541,9.317-8.661S1007.884,646.914,1003.284,641.78Z" transform="translate(-754.583 -496.527)" fill="#ffc93c"/><path d="M1003.626,641.78a3.772,3.772,0,0,1,.475.956c4.08,4.792,6.251,9.264,2.332,9.378-3.652.106-8.033,6.635-9.083,8.286a3.527,3.527,0,0,0,.125.375s5.136-8.541,9.317-8.661S1008.226,646.914,1003.626,641.78Z" transform="translate(-754.925 -496.527)" opacity="0.1"/><path d="M1034.066,653.97c0,1.073-.12,1.946-.278,1.946s-.278-.87-.278-1.946.15-.556.3-.556S1034.066,652.9,1034.066,653.97Z" transform="translate(-781.034 -504.836)" fill="#ffd037"/><path d="M1036.089,658.443c-.942.514-1.762.834-1.832.692s.634-.653,1.576-1.165.57-.139.642,0S1037.029,657.929,1036.089,658.443Z" transform="translate(-781.57 -508.028)" fill="#ffd037"/><path d="M962.09,641.78s-2.329,3.057,1.076,7.644,6.212,8.48,5.075,11.349c0,0-5.136-8.541-9.317-8.661S957.49,646.914,962.09,641.78Z" transform="translate(-725.691 -496.527)" fill="#ffc93c"/><path d="M962.09,641.78a3.776,3.776,0,0,0-.475.956c-4.08,4.792-6.251,9.264-2.332,9.378,3.652.106,8.033,6.635,9.083,8.286a3.554,3.554,0,0,1-.125.375s-5.136-8.541-9.317-8.661S957.49,646.914,962.09,641.78Z" transform="translate(-725.691 -496.527)" opacity="0.1"/><path d="M960.09,653.97c0,1.073.12,1.946.278,1.946s.278-.87.278-1.946-.15-.556-.3-.556S960.09,652.9,960.09,653.97Z" transform="translate(-728.021 -504.836)" fill="#ffd037"/><path d="M953.248,658.443c.942.514,1.762.834,1.832.692s-.634-.653-1.576-1.165-.57-.139-.642,0S952.306,657.929,953.248,658.443Z" transform="translate(-722.666 -508.028)" fill="#ffd037"/><path d="M962.76,699.532s6.512-.2,8.475-1.6,10.006-3.057,10.5-.834,9.786,11.148,2.435,11.207-17.083-1.145-19.042-2.338S962.76,699.532,962.76,699.532Z" transform="translate(-729.949 -535.687)" fill="#a8a8a8"/><path d="M984.3,716.661c-7.352.058-17.083-1.145-19.042-2.338-1.493-.909-2.087-4.169-2.285-5.673h-.217s.411,5.253,2.371,6.446,11.69,2.4,19.042,2.338c2.124-.017,2.854-.773,2.816-1.89C986.694,716.224,985.9,716.647,984.3,716.661Z" transform="translate(-729.949 -544.81)" opacity="0.2"/><path d="M256.83,187.53h-1.746a1.223,1.223,0,1,0,0-2.443H240.942a1.223,1.223,0,0,0,0,2.443h1.746a1.223,1.223,0,0,0,0,2.443h-2.443a1.223,1.223,0,0,0,0,2.443h14.142a1.223,1.223,0,1,0,0-2.443h2.443a1.223,1.223,0,0,0,0-2.443Z" transform="translate(-207.414 -166.769)" fill="#dee3f3" opacity="0.5"/></g></g></svg>